<svg width="1038" height="232" viewBox="0 0 1038 232" fill="none" xmlns="http://www.w3.org/2000/svg">
<g filter="url(#filter0_d_2395_15)">
<path d="M164.165 26.5008C159.563 28.5902 148.975 37.8793 144.683 43.6109C137.258 53.5211 133.615 61.6526 130.82 74.8099C130.143 77.9721 130.03 79.0732 129.917 85.3695C129.804 93.0775 129.973 94.941 131.3 100.418C132.176 104.004 132.825 105.868 133.192 105.868C133.333 105.868 134.039 104.964 134.801 103.891L136.157 101.887L135.62 97.595C134.886 91.694 134.886 81.1061 135.592 76.5039C136.721 69.3888 138.585 63.7984 142.058 56.994C144.401 52.42 146.519 49.2577 147.224 49.2577C148.297 49.2577 151.29 54.2834 152.984 58.9421C155.723 66.3678 155.977 77.1533 153.549 84.0425C152.165 87.9671 149.06 93.6139 147.309 95.4492C144.825 98.075 139.996 104.399 137.117 108.832C134.293 113.18 128.872 124.135 127.206 128.879C121.955 143.786 120.571 152.821 120.543 171.851L121.785 196.5L125.371 179.701C125.879 179.192 124.326 180.745 124.835 180.237L125.371 179.701L125.512 170.666C125.653 160.332 125.795 156.407 126.218 153.358C126.529 150.986 128.138 142.572 128.307 142.262C128.392 142.149 128.957 140.116 129.606 137.744C130.227 135.344 131.385 131.787 132.147 129.81C133.87 125.434 137.229 118.714 137.681 118.714C137.851 118.714 138.839 120.07 139.827 121.735C143.13 127.185 146.152 130.94 149.624 133.933C150.33 134.554 151.94 136.05 153.182 137.293C154.452 138.535 155.61 139.495 155.779 139.438C155.949 139.382 155.13 138.309 153.944 137.067C149.342 132.126 144.458 124.531 141.013 116.879L139.94 114.479L140.815 112.842C142.283 110.188 144.627 106.799 147.281 103.524C153.521 95.8445 154.961 93.6986 156.796 89.4353C159.337 83.4778 160.353 78.5086 160.353 72.0711C160.353 66.029 159.704 62.302 157.643 56.7963C156.203 52.8999 154.735 50.2742 151.686 46.3214C151.177 45.6437 150.754 44.9096 150.754 44.6838C150.754 43.4697 157.784 36.8628 162.273 33.8418C163.883 32.7688 165.294 31.8936 165.464 31.8936C165.605 31.8936 167.243 33.39 169.078 35.197C175.6 41.6909 180.682 49.6812 183.873 58.5751C185.99 64.3913 186.95 68.7677 187.458 74.7816C187.741 77.8874 187.741 78.6215 187.402 78.9038C187.204 79.0732 185.962 79.525 184.635 79.892C176.391 82.0661 171.224 85.2283 165.323 91.694C164.024 93.0775 164.843 92.7669 166.819 91.1011C167.779 90.2823 168.993 89.407 169.473 89.1529C170.744 88.5035 175.177 86.5836 177.012 85.8777C177.859 85.5671 179.383 84.9742 180.4 84.6072C183.393 83.4496 185.482 83.026 188.983 82.8284C191.411 82.6872 192.428 82.5178 192.738 82.179C193.783 81.1344 192.23 68.0618 190.254 61.5397C187.515 52.4482 182.659 43.3285 176.588 36.0158C173.68 32.4865 167.807 26.6702 166.734 26.2749C165.718 25.8797 165.492 25.8797 164.165 26.5008Z" fill="black"/>
</g>
<g filter="url(#filter1_d_2395_15)">
<path d="M71.6179 26.4989C76.2202 28.5882 86.808 37.8773 91.0997 43.6089C98.5253 53.5192 102.167 61.6507 104.963 74.8079C105.64 77.9701 105.753 79.0713 105.866 85.3676C105.979 93.0755 105.81 94.939 104.483 100.416C103.607 104.002 102.958 105.866 102.591 105.866C102.45 105.866 101.744 104.962 100.982 103.889L99.6265 101.885L100.163 97.593C100.897 91.6921 100.897 81.1042 100.191 76.502C99.0618 69.3869 97.1983 63.7965 93.7255 56.992C91.382 52.418 89.2644 49.2558 88.5586 49.2558C87.4857 49.2558 84.4928 54.2815 82.7988 58.9402C80.06 66.3658 79.8059 77.1513 82.2341 84.0405C83.6176 87.9651 86.7233 93.612 88.4739 95.4472C90.9585 98.073 95.7866 104.398 98.6665 108.83C101.49 113.178 106.911 124.133 108.577 128.877C113.828 143.784 115.212 152.819 115.24 171.849L113.998 196.498L110.412 179.699C109.904 179.19 111.457 180.743 110.948 180.235L110.412 179.699L110.271 170.664C110.13 160.33 109.988 156.405 109.565 153.356C109.254 150.984 107.645 142.57 107.476 142.26C107.391 142.147 106.826 140.114 106.177 137.742C105.556 135.342 104.398 131.785 103.636 129.808C101.913 125.432 98.5536 118.712 98.1018 118.712C97.9324 118.712 96.9442 120.068 95.956 121.733C92.6526 127.183 89.6315 130.938 86.1587 133.931C85.4528 134.552 83.8434 136.048 82.6011 137.291C81.3306 138.533 80.173 139.493 80.0036 139.436C79.8342 139.38 80.653 138.307 81.8388 137.065C86.441 132.124 91.3256 124.529 94.7702 116.877L95.8431 114.477L94.9678 112.84C93.4996 110.186 91.1561 106.797 88.5021 103.522C82.2623 95.8425 80.8224 93.6967 78.9871 89.4333C76.446 83.4758 75.4296 78.5066 75.4296 72.0692C75.4296 66.027 76.079 62.3 78.1401 56.7943C79.58 52.898 81.0482 50.2722 84.0975 46.3194C84.6058 45.6418 85.0293 44.9077 85.0293 44.6818C85.0293 43.4677 77.9989 36.8609 73.5096 33.8398C71.9003 32.7669 70.4886 31.8916 70.3192 31.8916C70.178 31.8916 68.5404 33.3881 66.7052 35.1951C60.183 41.689 55.1008 49.6793 51.9103 58.5731C49.7928 64.3894 48.8328 68.7657 48.3246 74.7797C48.0422 77.8854 48.0422 78.6195 48.381 78.9019C48.5787 79.0713 49.821 79.523 51.148 79.8901C59.3924 82.0641 64.5593 85.2264 70.4603 91.6921C71.7591 93.0755 70.9403 92.765 68.9639 91.0991C68.0039 90.2803 66.7899 89.4051 66.3099 89.151C65.0393 88.5016 60.6065 86.5816 58.7713 85.8758C57.9243 85.5652 56.3996 84.9723 55.3832 84.6052C52.3903 83.4476 50.301 83.0241 46.7999 82.8265C44.3717 82.6853 43.3553 82.5159 43.0447 82.1771C42.0001 81.1324 43.5529 68.0599 45.5294 61.5377C48.2681 52.4463 53.1244 43.3266 59.1948 36.0138C62.103 32.4845 67.9757 26.6683 69.0486 26.273C70.065 25.8777 70.2909 25.8777 71.6179 26.4989Z" fill="black"/>
</g>
<g filter="url(#filter2_d_2395_15)">
<path d="M111.508 29.8889C110.661 30.1995 109.334 30.4536 108.543 30.4536C107.781 30.4818 106.623 30.623 106.002 30.7924C101.88 31.8935 91.4614 37.4839 91.4614 38.5851C91.4614 38.7262 91.8567 39.2062 92.3367 39.6862C92.8167 40.138 93.4378 40.9003 93.7484 41.4085L94.3131 42.312L96.2048 41.0979C101.146 37.9074 106.426 35.8463 111.79 34.9993C114.585 34.5758 121.192 34.6605 124.242 35.1687C129.211 35.9875 134.434 38.0486 138.669 40.8438C139.714 41.5497 140.702 42.0579 140.843 42.0014C141.38 41.8038 143.723 38.6133 143.61 38.2745C143.356 37.6251 136.072 33.3052 135.225 33.3052C135.055 33.3052 134.011 32.8817 132.881 32.3453C131.752 31.8088 129.183 30.9618 127.178 30.4818C123.903 29.663 122.943 29.5783 118.284 29.4654C113.654 29.3524 112.891 29.4089 111.508 29.8889Z" fill="black"/>
</g>
<g filter="url(#filter3_d_2395_15)">
<path d="M359.577 67.3296C360.304 68.3468 360.485 69.4728 360.122 70.7079L337.129 144.484C336.91 145.283 336.456 145.937 335.766 146.446C335.076 146.954 334.295 147.208 333.423 147.208H323.942C323.143 147.208 322.399 146.954 321.709 146.446C321.018 145.937 320.564 145.32 320.346 144.593L304 94.0286L287.763 144.593C287.472 145.392 287 146.028 286.346 146.5C285.692 146.972 284.93 147.208 284.058 147.208H274.577C273.269 147.208 272.216 146.7 271.417 145.683C270.69 144.448 270.545 143.285 270.98 142.195L295.609 68.3104C295.827 67.5839 296.281 66.9664 296.971 66.4579C297.661 65.9493 298.406 65.695 299.205 65.695H308.795C309.667 65.695 310.43 65.9493 311.083 66.4579C311.737 66.9664 312.21 67.6202 312.5 68.4194L328.628 118.548L343.885 68.4194C344.176 67.6202 344.666 66.9664 345.356 66.4579C346.046 65.9493 346.791 65.695 347.59 65.695H356.417C357.797 65.695 358.851 66.2399 359.577 67.3296ZM264.115 68.4194L270.327 88.7978C270.763 90.0327 270.581 91.1771 269.782 92.2305C268.983 93.2839 267.929 93.8105 266.622 93.8105H258.013C257.141 93.8105 256.36 93.5564 255.67 93.0478C254.979 92.5393 254.525 91.8854 254.307 91.0861L247.987 70.7079C247.551 69.4728 247.733 68.3286 248.532 67.2751C249.331 66.2217 250.348 65.695 251.583 65.695H260.41C261.282 65.695 262.063 65.9493 262.753 66.4579C263.443 66.9664 263.897 67.6202 264.115 68.4194ZM437.429 130.862C438.519 130.862 439.427 131.243 440.153 132.006C440.88 132.769 441.243 133.695 441.243 134.785V142.74C441.243 143.758 440.88 144.647 440.153 145.41C439.427 146.173 438.519 146.554 437.429 146.554H383.595C382.578 146.554 381.688 146.173 380.926 145.41C380.163 144.647 379.781 143.758 379.781 142.74V134.785C379.781 133.695 380.163 132.769 380.926 132.006C381.688 131.243 382.578 130.862 383.595 130.862H437.429ZM383.595 113.971C382.578 113.971 381.688 113.59 380.926 112.827C380.163 112.064 379.781 111.174 379.781 110.157V101.984C379.781 100.967 380.163 100.077 380.926 99.3139C381.688 98.551 382.578 98.1695 383.595 98.1695H432.525C433.615 98.1695 434.541 98.551 435.304 99.3139C436.067 100.077 436.448 100.967 436.448 101.984V110.157C436.448 111.174 436.067 112.064 435.304 112.827C434.541 113.59 433.615 113.971 432.525 113.971H383.595ZM437.429 65.695C438.519 65.695 439.427 66.0764 440.153 66.8392C440.88 67.6021 441.243 68.492 441.243 69.5091V77.4643C441.243 78.5541 440.88 79.4804 440.153 80.2432C439.427 81.006 438.519 81.3874 437.429 81.3874H383.595C382.578 81.3874 381.688 81.006 380.926 80.2432C380.163 79.4804 379.781 78.5541 379.781 77.4643V69.5091C379.781 68.492 380.163 67.6021 380.926 66.8392C381.688 66.0764 382.578 65.695 383.595 65.695H437.429ZM521.602 104.817C525.378 107.142 528.139 110.484 529.883 114.843C530.9 117.168 531.41 120.037 531.41 123.452C531.41 128.755 529.993 133.205 527.159 136.801C524.327 140.397 520.185 143.067 514.737 144.811C511.322 145.973 507.29 146.554 502.639 146.554H467.877C466.86 146.554 465.97 146.173 465.207 145.41C464.444 144.647 464.062 143.758 464.062 142.74V134.894C464.062 133.804 464.444 132.878 465.207 132.115C465.97 131.352 466.86 130.971 467.877 130.971H503.512C507.724 130.971 510.849 130.208 512.883 128.682C514.627 127.23 515.498 125.25 515.498 122.743C515.498 120.237 514.59 118.185 512.776 116.586C510.522 114.625 507.144 113.644 502.639 113.644H467.877C466.86 113.644 465.97 113.263 465.207 112.5C464.444 111.737 464.062 110.811 464.062 109.721V102.202C464.062 101.185 464.444 100.295 465.207 99.5317C465.97 98.769 466.86 98.3876 467.877 98.3876H500.678C503.802 98.3876 506.237 97.8427 507.981 96.753C509.215 96.0264 510.195 94.973 510.922 93.5927C511.429 92.5756 511.685 91.3949 511.685 90.051C511.685 88.7069 511.502 87.49 511.139 86.4003C510.849 85.5285 510.341 84.7293 509.615 84.0028C508.015 82.1866 505.363 81.2784 501.659 81.2784H467.877C466.86 81.2784 465.97 80.897 465.207 80.1342C464.444 79.3714 464.062 78.4451 464.062 77.3553V69.5091C464.062 68.492 464.444 67.6021 465.207 66.8392C465.97 66.0764 466.86 65.695 467.877 65.695H500.678C509.688 65.695 516.624 68.2378 521.493 73.3233C525.634 77.4643 527.705 82.6588 527.705 88.9066C527.705 95.5905 525.671 100.894 521.602 104.817ZM627.068 81.2784C626.122 81.1331 625.341 80.6972 624.724 79.9708C624.107 79.2442 623.798 78.4088 623.798 77.4643V69.5091C623.798 68.2741 624.234 67.2933 625.105 66.5668C625.978 65.8403 626.995 65.5497 628.156 65.695C634.405 66.7121 639.963 68.928 644.829 72.3425C651.151 76.9194 655.62 82.9857 658.234 90.5412C658.671 91.7764 658.524 92.9388 657.798 94.0286C657.071 95.1183 656.02 95.6632 654.639 95.6632H645.92C645.122 95.6632 644.395 95.4634 643.741 95.0637C643.088 94.6642 642.615 94.1012 642.324 93.3747C640.724 89.5969 638.293 86.5819 635.022 84.3298C632.481 82.7314 629.829 81.7143 627.068 81.2784ZM654.639 117.458C656.02 117.458 657.071 118.003 657.798 119.093C658.524 120.182 658.671 121.345 658.234 122.58C655.62 130.136 651.151 136.202 644.829 140.779C639.963 144.193 634.405 146.409 628.156 147.426H627.612C626.595 147.426 625.759 147.099 625.105 146.446C624.234 145.792 623.798 144.847 623.798 143.612V135.657C623.798 134.712 624.088 133.877 624.671 133.151C625.251 132.424 626.015 131.988 626.959 131.843C630.01 131.407 632.698 130.39 635.022 128.791C638.293 126.539 640.724 123.524 642.324 119.747C642.615 119.02 643.088 118.457 643.741 118.058C644.395 117.658 645.122 117.458 645.92 117.458H654.639ZM615.624 67.0027C616.568 67.7292 617.041 68.71 617.041 69.945V78.4451C617.041 79.2442 616.768 79.9889 616.224 80.6791C615.681 81.3693 615.007 81.8597 614.207 82.1502C613.19 82.3682 612.393 82.6225 611.81 82.9131C608.905 84.2208 606.434 86.0007 604.4 88.2529C600.259 92.9025 598.188 98.9869 598.188 106.506C598.188 114.025 600.259 120.146 604.4 124.869C606.944 127.774 610.212 129.809 614.207 130.971C615.007 131.189 615.681 131.643 616.224 132.333C616.768 133.023 617.041 133.768 617.041 134.567V143.176C617.041 144.411 616.568 145.392 615.624 146.119C614.971 146.7 614.137 146.991 613.12 146.991H612.356C604.583 145.32 598.007 141.542 592.632 135.657C585.729 127.883 582.278 118.185 582.278 106.561C582.278 94.9366 585.729 85.2379 592.632 77.4643C598.007 71.507 604.583 67.7655 612.356 66.2399C613.517 65.9493 614.607 66.2036 615.624 67.0027ZM712.002 66.5668C712.873 67.2933 713.31 68.2741 713.31 69.5091V77.6823C713.31 78.6267 713.037 79.444 712.493 80.1342C711.949 80.8244 711.202 81.2784 710.259 81.4964C705.61 82.4409 701.649 84.6567 698.38 88.1439C693.949 92.7934 691.734 98.8415 691.734 106.288C691.734 113.735 693.949 119.819 698.38 124.541C701.649 127.956 705.61 130.136 710.259 131.08C711.202 131.298 711.949 131.752 712.493 132.442C713.037 133.132 713.31 133.95 713.31 134.894V143.067C713.31 144.23 712.873 145.211 712.002 146.01C711.202 146.591 710.368 146.881 709.495 146.881H708.841C700.415 145.501 693.185 141.687 687.156 135.439C679.6 127.665 675.822 117.985 675.822 106.397C675.822 94.8095 679.6 85.0562 687.156 77.1374C693.041 71.0348 700.271 67.257 708.841 65.804C710.005 65.586 711.059 65.8403 712.002 66.5668ZM746.22 77.1374C753.776 85.0562 757.554 94.8095 757.554 106.397C757.554 117.985 753.776 127.665 746.22 135.439C740.19 141.687 732.961 145.501 724.534 146.881H723.881C723.01 146.881 722.173 146.591 721.373 146.01C720.502 145.211 720.066 144.23 720.066 143.067V134.894C720.066 133.95 720.339 133.132 720.883 132.442C721.429 131.752 722.173 131.298 723.117 131.08C727.768 130.136 731.727 127.956 734.995 124.541C739.427 119.819 741.644 113.735 741.644 106.288C741.644 98.8415 739.427 92.7934 734.995 88.1439C731.727 84.6567 727.768 82.4409 723.117 81.4964C722.173 81.2784 721.429 80.8244 720.883 80.1342C720.339 79.444 720.066 78.6267 720.066 77.6823V69.5091C720.066 68.2741 720.522 67.2933 721.429 66.5668C722.337 65.8403 723.373 65.586 724.534 65.804C733.107 67.257 740.337 71.0348 746.22 77.1374ZM828.976 68.5284C833.407 70.1993 837.405 72.8874 840.963 76.5925C848.593 84.2934 852.405 94.1193 852.405 106.07C852.405 118.021 848.593 127.883 840.963 135.657C837.405 139.362 833.407 142.05 828.976 143.721C824.4 145.61 819.715 146.554 814.92 146.554H784.078C783.061 146.554 782.171 146.173 781.41 145.41C780.646 144.647 780.263 143.758 780.263 142.74V134.894C780.263 133.804 780.646 132.878 781.41 132.115C782.171 131.352 783.061 130.971 784.078 130.971H814.593C821.059 130.971 826.307 128.61 830.339 123.888C834.371 119.165 836.388 113.244 836.388 106.125C836.388 99.0051 834.371 93.0842 830.339 88.3618C826.307 83.6396 821.059 81.2784 814.593 81.2784H784.078C783.061 81.2784 782.171 80.897 781.41 80.1342C780.646 79.3714 780.263 78.4451 780.263 77.3553V69.5091C780.263 68.492 780.646 67.6021 781.41 66.8392C782.171 66.0764 783.061 65.695 784.078 65.695H814.92C819.715 65.695 824.4 66.6395 828.976 68.5284ZM932.873 130.862C933.963 130.862 934.871 131.243 935.598 132.006C936.324 132.769 936.688 133.695 936.688 134.785V142.74C936.688 143.758 936.324 144.647 935.598 145.41C934.871 146.173 933.963 146.554 932.873 146.554H879.039C878.022 146.554 877.132 146.173 876.371 145.41C875.607 144.647 875.224 143.758 875.224 142.74V134.785C875.224 133.695 875.607 132.769 876.371 132.006C877.132 131.243 878.022 130.862 879.039 130.862H932.873ZM879.039 113.971C878.022 113.971 877.132 113.59 876.371 112.827C875.607 112.064 875.224 111.174 875.224 110.157V101.984C875.224 100.967 875.607 100.077 876.371 99.3139C877.132 98.551 878.022 98.1695 879.039 98.1695H927.968C929.059 98.1695 929.985 98.551 930.749 99.3139C931.51 100.077 931.893 100.967 931.893 101.984V110.157C931.893 111.174 931.51 112.064 930.749 112.827C929.985 113.59 929.059 113.971 927.968 113.971H879.039ZM932.873 65.695C933.963 65.695 934.871 66.0764 935.598 66.8392C936.324 67.6021 936.688 68.492 936.688 69.5091V77.4643C936.688 78.5541 936.324 79.4804 935.598 80.2432C934.871 81.006 933.963 81.3874 932.873 81.3874H879.039C878.022 81.3874 877.132 81.006 876.371 80.2432C875.607 79.4804 875.224 78.5541 875.224 77.4643V69.5091C875.224 68.492 875.607 67.6021 876.371 66.8392C877.132 66.0764 878.022 65.695 879.039 65.695H932.873ZM1011.16 115.279L1027.62 140.452C1028.41 141.76 1028.45 143.067 1027.72 144.375C1027.43 144.956 1026.98 145.428 1026.36 145.792C1025.75 146.155 1025.11 146.337 1024.46 146.337H1014.54C1013.89 146.337 1013.27 146.173 1012.69 145.846C1012.1 145.519 1011.67 145.101 1011.38 144.593L994.815 118.33H975.417V142.522C975.417 143.54 975.037 144.43 974.273 145.192C973.51 145.955 972.62 146.337 971.602 146.337H963.322C962.302 146.337 961.415 145.955 960.651 145.192C959.888 144.43 959.507 143.54 959.507 142.522V106.67C959.507 105.652 959.888 104.762 960.651 104C961.415 103.237 962.302 102.855 963.322 102.855H996.885C1003.28 102.855 1007.53 101.039 1009.63 97.4069C1010.36 96.2444 1010.72 94.5734 1010.72 92.3939C1010.72 88.9793 1009.6 86.2913 1007.35 84.3298C1005.02 82.2229 1001.68 81.1695 997.322 81.1695H963.322C962.302 81.1695 961.415 80.788 960.651 80.0252C959.888 79.2624 959.507 78.3724 959.507 77.3553V69.5091C959.507 68.492 959.888 67.6021 960.651 66.8392C961.415 66.0764 962.302 65.695 963.322 65.695H998.302C1006.8 65.695 1013.6 68.0925 1018.68 72.8874C1023.98 77.6823 1026.63 84.1844 1026.63 92.3939C1026.63 97.6973 1025.47 102.22 1023.15 105.961C1020.82 109.703 1017.44 112.554 1013.01 114.516L1011.16 115.279Z" fill="black"/>
</g>
<defs>
<filter id="filter0_d_2395_15" x="116.543" y="26.002" width="80.5308" height="178.498" filterUnits="userSpaceOnUse" color-interpolation-filters="sRGB">
<feFlood flood-opacity="0" result="BackgroundImageFix"/>
<feColorMatrix in="SourceAlpha" type="matrix" values="0 0 0 0 0 0 0 0 0 0 0 0 0 0 0 0 0 0 127 0" result="hardAlpha"/>
<feOffset dy="4"/>
<feGaussianBlur stdDeviation="2"/>
<feComposite in2="hardAlpha" operator="out"/>
<feColorMatrix type="matrix" values="0 0 0 0 0 0 0 0 0 0 0 0 0 0 0 0 0 0 0.32 0"/>
<feBlend mode="normal" in2="BackgroundImageFix" result="effect1_dropShadow_2395_15"/>
<feBlend mode="normal" in="SourceGraphic" in2="effect1_dropShadow_2395_15" result="shape"/>
</filter>
<filter id="filter1_d_2395_15" x="38.7092" y="26" width="80.5308" height="178.498" filterUnits="userSpaceOnUse" color-interpolation-filters="sRGB">
<feFlood flood-opacity="0" result="BackgroundImageFix"/>
<feColorMatrix in="SourceAlpha" type="matrix" values="0 0 0 0 0 0 0 0 0 0 0 0 0 0 0 0 0 0 127 0" result="hardAlpha"/>
<feOffset dy="4"/>
<feGaussianBlur stdDeviation="2"/>
<feComposite in2="hardAlpha" operator="out"/>
<feColorMatrix type="matrix" values="0 0 0 0 0 0 0 0 0 0 0 0 0 0 0 0 0 0 0.32 0"/>
<feBlend mode="normal" in2="BackgroundImageFix" result="effect1_dropShadow_2395_15"/>
<feBlend mode="normal" in="SourceGraphic" in2="effect1_dropShadow_2395_15" result="shape"/>
</filter>
<filter id="filter2_d_2395_15" x="87.4614" y="29.4159" width="60.1526" height="20.8961" filterUnits="userSpaceOnUse" color-interpolation-filters="sRGB">
<feFlood flood-opacity="0" result="BackgroundImageFix"/>
<feColorMatrix in="SourceAlpha" type="matrix" values="0 0 0 0 0 0 0 0 0 0 0 0 0 0 0 0 0 0 127 0" result="hardAlpha"/>
<feOffset dy="4"/>
<feGaussianBlur stdDeviation="2"/>
<feComposite in2="hardAlpha" operator="out"/>
<feColorMatrix type="matrix" values="0 0 0 0 0 0 0 0 0 0 0 0 0 0 0 0 0 0 0.32 0"/>
<feBlend mode="normal" in2="BackgroundImageFix" result="effect1_dropShadow_2395_15"/>
<feBlend mode="normal" in="SourceGraphic" in2="effect1_dropShadow_2395_15" result="shape"/>
</filter>
<filter id="filter3_d_2395_15" x="243.756" y="65.6587" width="788.488" height="89.7677" filterUnits="userSpaceOnUse" color-interpolation-filters="sRGB">
<feFlood flood-opacity="0" result="BackgroundImageFix"/>
<feColorMatrix in="SourceAlpha" type="matrix" values="0 0 0 0 0 0 0 0 0 0 0 0 0 0 0 0 0 0 127 0" result="hardAlpha"/>
<feOffset dy="4"/>
<feGaussianBlur stdDeviation="2"/>
<feComposite in2="hardAlpha" operator="out"/>
<feColorMatrix type="matrix" values="0 0 0 0 0 0 0 0 0 0 0 0 0 0 0 0 0 0 0.25 0"/>
<feBlend mode="normal" in2="BackgroundImageFix" result="effect1_dropShadow_2395_15"/>
<feBlend mode="normal" in="SourceGraphic" in2="effect1_dropShadow_2395_15" result="shape"/>
</filter>
</defs>
</svg>
